<svg width="19" height="25" viewBox="0 0 19 25" fill="none" xmlns="http://www.w3.org/2000/svg">
<path d="M18.6692 10.0069C18.6692 10.0069 17.5692 11.1647 15.6992 12.5293C15.1858 9.17986 13.7558 5.04479 10.9692 0C10.9692 0 10.0525 5.41694 7.00917 10.5031C5.68917 8.18744 5.1025 6.36801 5.1025 6.36801C-4.43083 17.1605 3.48917 24.8104 8.47583 24.8104C14.8558 24.8104 20.4658 21.337 18.6692 10.0069Z" fill="#C1271D"/>
<path d="M14.8925 19.6002C15.4425 18.2356 15.8458 16.4575 15.9191 14.2246C15.9191 14.2246 15.1491 14.9689 13.8291 15.92C13.4625 13.687 12.4725 10.9579 10.5291 7.56714C10.5291 7.56714 9.90581 11.1647 7.77915 14.5968C6.86248 13.0668 6.45915 11.8263 6.45915 11.8263C4.88248 14.6381 4.25915 16.871 4.22248 18.6491C3.34248 18.277 2.79248 17.9875 2.79248 17.9875C4.29581 23.0323 7.41248 24.1488 8.80581 24.1488C11.2991 24.1488 13.8291 23.3218 16.3225 19.3107C16.3225 19.2694 15.7725 19.4348 14.8925 19.6002Z" fill="#ECA157"/>
<path d="M5.79925 17.326C5.79925 17.326 6.82592 18.8973 7.59592 18.5251C7.59592 18.5251 9.06259 15.9201 11.1893 14.4728C11.1893 14.4728 10.7493 18.4424 11.2626 19.1454C11.9226 20.0965 13.7193 18.1116 13.7193 18.1116C13.7193 20.4686 11.4459 23.4045 9.39259 23.4045C7.41259 23.4045 4.55259 20.8408 5.79925 17.326Z" fill="#FFDF85"/>
<path d="M16.0292 6.65751C16.7992 5.41699 17.3125 4.09377 17.3125 4.09377C18.5958 6.49211 17.8258 7.93938 17.2758 8.39424C16.5058 9.05585 15.1492 8.10478 16.0292 6.65751ZM2.02252 6.244C1.25252 4.79673 1.17918 2.9773 1.17918 2.9773C-0.65415 6.0786 0.0425162 7.81533 0.66585 8.31154C1.47252 9.0145 2.86585 7.93938 2.02252 6.244ZM6.27585 3.01865C6.38585 2.02623 6.01918 1.03381 6.01918 1.03381C7.74252 2.31569 7.74252 3.3908 7.52252 3.84566C7.19252 4.38322 6.16585 4.13512 6.27585 3.01865Z" fill="#C1271D"/>
</svg>
