<svg width="237" height="39" viewBox="0 0 237 39" fill="none" xmlns="http://www.w3.org/2000/svg">
<path d="M74.5 13.6071L74.2523 14.0414L74.5 13.6071ZM150.964 25.4297L150.539 25.1664L150.964 25.4297ZM236.255 14.037C236.493 13.8961 236.571 13.5894 236.43 13.3519L234.134 9.48182C233.993 9.24434 233.686 9.16605 233.449 9.30696C233.211 9.44787 233.133 9.75461 233.274 9.9921L235.315 13.4321L231.875 15.4732C231.637 15.6142 231.559 15.9209 231.7 16.1584C231.841 16.3959 232.148 16.4742 232.385 16.3333L236.255 14.037ZM0.500001 13.6071C0.880043 13.932 0.879896 13.9322 0.879841 13.9322C0.879946 13.9321 0.879983 13.9321 0.880192 13.9318C0.88061 13.9313 0.881397 13.9304 0.882552 13.9291C0.884862 13.9264 0.888646 13.9221 0.893905 13.916C0.904424 13.904 0.92084 13.8854 0.943159 13.8606C0.987797 13.8109 1.05604 13.7361 1.14792 13.6388C1.3317 13.4443 1.60998 13.16 1.98307 12.8066C2.7293 12.0997 3.85434 11.1166 5.36041 10.0227C8.37261 7.83466 12.9069 5.20441 18.9829 3.45023C31.1184 -0.053395 49.4797 -0.0834659 74.2523 14.0414L74.7477 13.1727C49.7714 -1.06831 31.1327 -1.09838 18.7055 2.48947C12.5 4.28104 7.86226 6.96939 4.77272 9.21357C3.22792 10.3357 2.06967 11.3471 1.29534 12.0806C0.908147 12.4474 0.616832 12.7449 0.421074 12.952C0.32319 13.0556 0.249185 13.1367 0.199016 13.1926C0.173931 13.2205 0.154804 13.2422 0.14163 13.2572C0.135043 13.2647 0.129944 13.2706 0.126333 13.2748C0.124527 13.2768 0.123093 13.2785 0.122031 13.2797C0.1215 13.2804 0.120981 13.281 0.120716 13.2813C0.120291 13.2818 0.119959 13.2822 0.500001 13.6071ZM74.2523 14.0414C85.0009 20.17 99.7207 30.4155 113.948 35.4685C121.074 37.9994 128.142 39.2556 134.586 38.02C141.054 36.7799 146.838 33.0394 151.389 25.693L150.539 25.1664C146.123 32.2946 140.569 35.8546 134.398 37.0379C128.202 38.2259 121.329 37.0286 114.283 34.5262C100.166 29.5126 85.6204 19.3721 74.7477 13.1727L74.2523 14.0414ZM151.389 25.693C155.783 18.6006 163.207 14.2971 171.951 11.851C180.695 9.40491 190.707 8.8315 200.189 9.16209C209.668 9.49252 218.592 10.7251 225.148 11.8758C228.426 12.451 231.11 13.0055 232.974 13.4159C233.906 13.6212 234.633 13.7903 235.126 13.9081C235.373 13.9669 235.561 14.0129 235.687 14.0442C235.75 14.0598 235.798 14.0717 235.829 14.0796C235.845 14.0836 235.857 14.0866 235.865 14.0886C235.869 14.0896 235.872 14.0903 235.874 14.0908C235.875 14.0911 235.875 14.0912 235.876 14.0913C235.876 14.0914 235.876 14.0915 236 13.607C236.124 13.1225 236.123 13.1224 236.123 13.1223C236.122 13.1221 236.121 13.1219 236.12 13.1216C236.118 13.1211 236.115 13.1203 236.111 13.1192C236.102 13.1171 236.09 13.1139 236.073 13.1098C236.04 13.1015 235.991 13.0893 235.927 13.0734C235.798 13.0415 235.607 12.9949 235.358 12.9354C234.86 12.8164 234.127 12.6459 233.189 12.4393C231.313 12.0263 228.615 11.4689 225.321 10.8908C218.736 9.73502 209.763 8.49524 200.224 8.1627C190.69 7.8303 180.563 8.40324 171.682 10.8879C162.8 13.3725 155.112 17.7841 150.539 25.1664L151.389 25.693Z" fill="#1D1D1D"/>
<circle cx="58" cy="6" r="2" fill="#1D1D1D"/>
<path d="M156.5 21C156.5 22.1046 155.605 23 154.5 23C153.395 23 152.5 22.1046 152.5 21C152.5 19.8954 153.395 19 154.5 19C155.605 19 156.5 19.8954 156.5 21Z" fill="#1D1D1D"/>
</svg>
