<svg width="14" height="16" viewBox="0 0 14 16" fill="none" xmlns="http://www.w3.org/2000/svg">
<path d="M1.54192 1.61374L1.54192 1.61374L1.54401 1.61147C1.87972 1.24584 2.21134 1.02683 2.60981 0.857726C2.99532 0.695721 3.44285 0.580728 4.13996 0.543461C4.8723 0.50991 5.10214 0.5 7 0.5C8.89993 0.5 9.12752 0.507591 9.85922 0.543417C10.5552 0.580669 11.0052 0.695863 11.3909 0.858027L11.3927 0.858757C11.7892 1.02372 12.1185 1.24353 12.4558 1.61126L12.4558 1.61127L12.4579 1.61353C12.7958 1.97747 13.0024 2.3417 13.1627 2.78457C13.3143 3.21196 13.4249 3.71481 13.4598 4.47806C13.4908 5.27393 13.5 5.52462 13.5 7.58107C13.5 9.63943 13.493 9.88799 13.4598 10.6835C13.4249 11.4477 13.3146 11.9484 13.162 12.3795C13.0053 12.8211 12.7978 13.183 12.4581 13.5484L12.456 13.5507C12.1206 13.9159 11.7893 14.1349 11.3914 14.3039C11.0033 14.4644 10.5525 14.5815 9.86009 14.6187C9.12771 14.6522 8.8979 14.6621 7 14.6621C5.0999 14.6621 4.87244 14.6546 4.14059 14.6187C3.44653 14.5815 2.99549 14.4645 2.60743 14.3034C2.21212 14.1381 1.88078 13.9179 1.5442 13.5509L1.54421 13.5509L1.54211 13.5486C1.204 13.1845 0.997427 12.8201 0.837102 12.377C0.683536 11.9484 0.575179 11.449 0.540248 10.6842C0.509158 9.88823 0.5 9.63761 0.5 7.58107C0.5 5.52271 0.507008 5.27415 0.540219 4.47859C0.57513 3.7108 0.683559 3.21351 0.837343 2.78452L0.83766 2.78363C0.99464 2.34311 1.20255 1.9788 1.54192 1.61374ZM9.8559 0.909472L9.85361 0.909367C9.12713 0.875807 8.88716 0.865398 7.16756 0.864792L7.13864 0.842965H6.97112C5.1381 0.842965 4.8813 0.852976 4.16928 0.880731C4.1529 0.88137 4.13627 0.882018 4.11938 0.882675L4.11938 0.882619L4.11185 0.883026C3.37203 0.92301 2.94936 1.05878 2.65158 1.18387C2.24186 1.34917 1.95478 1.56671 1.6699 1.87523L1.6696 1.87555C1.38337 2.1861 1.18739 2.49078 1.04192 2.92192C0.925331 3.23852 0.806027 3.69497 0.767758 4.47544L0.767677 4.47544L0.767398 4.48444C0.765912 4.53241 0.764471 4.57842 0.763077 4.62296C0.740916 5.33084 0.730404 5.66665 0.730404 7.57017C0.730404 9.47827 0.740956 9.81135 0.763212 10.5138C0.764566 10.5566 0.765963 10.6007 0.767404 10.6466L0.767327 10.6466L0.767758 10.6554C0.806062 11.4366 0.925556 11.8944 1.04257 12.2107C1.18677 12.6298 1.38026 12.9419 1.6699 13.2556C1.96242 13.5724 2.24837 13.773 2.64372 13.9437L2.64371 13.9437L2.6478 13.9454C2.94676 14.0713 3.37843 14.2075 4.11623 14.2506L4.11623 14.2506L4.12056 14.2508C4.87586 14.2884 5.10353 14.2983 6.98075 14.2983C8.85809 14.2983 9.08533 14.2883 9.83861 14.2537L9.84092 14.2536C10.5816 14.2162 11.016 14.0803 11.3151 13.9522C11.7051 13.7871 11.9976 13.5835 12.2915 13.2685L12.2916 13.2685L12.2963 13.2633C12.5863 12.9436 12.7661 12.639 12.9192 12.2281L12.9192 12.2281L12.9212 12.2225C13.0338 11.9089 13.1572 11.4585 13.1964 10.6719L13.1965 10.6684C13.2311 9.8582 13.2403 9.60801 13.2403 7.58155C13.2403 5.55496 13.2311 5.30553 13.1992 4.49636L13.1991 4.49441C13.165 3.70698 13.0417 3.25527 12.9282 2.94058C12.7795 2.52514 12.595 2.21474 12.3034 1.89892L12.3034 1.89892L12.3016 1.89698C12.0074 1.58174 11.72 1.37667 11.3234 1.21014C11.0241 1.08352 10.5958 0.947047 9.8559 0.909472ZM3.90636 7.58202C3.90636 5.67016 5.32619 4.19007 7 4.19007C8.672 4.19007 10.0936 5.66821 10.0936 7.58202C10.0936 9.49387 8.67381 10.974 7 10.974C5.328 10.974 3.90636 9.49583 3.90636 7.58202ZM4.16652 7.58202C4.16652 9.21686 5.39715 10.6092 7 10.6092C8.60285 10.6092 9.83348 9.21686 9.83348 7.58202C9.83348 5.94718 8.60285 4.55484 7 4.55484C5.39715 4.55484 4.16652 5.94718 4.16652 7.58202ZM11.0786 3.53464C11.0786 3.79894 10.8886 3.94496 10.7372 3.94496C10.5851 3.94496 10.3966 3.80022 10.3966 3.53464C10.3966 3.27301 10.5863 3.12622 10.7372 3.12622C10.8887 3.12622 11.0786 3.27371 11.0786 3.53464Z" fill="#1D1D1D" stroke="black"/>
</svg>
