<svg width="262" height="110" viewBox="0 0 262 110" fill="none" xmlns="http://www.w3.org/2000/svg">
<path d="M187.724 1.05034C187.724 1.05034 283.349 19.463 254.734 54.0307C239.658 72.244 165.5 61 154 67.5C142.5 74 143.391 66.3759 111.5 95.5C79.6093 124.624 33.2374 93.7799 28.4999 95.5" stroke="#1D1D1D" stroke-width="2" stroke-dasharray="4 4"/>
<path d="M26.9987 88.3905L20.8015 82.9359C20.1517 82.3642 19.2798 82.0305 18.3615 82.002C17.4432 81.9735 16.5467 82.2524 15.8527 82.7825C15.1588 83.3125 14.7188 84.0544 14.6215 84.8586C14.5242 85.6628 14.7767 86.4695 15.3283 87.1164L15.0411 87.4011L9.33181 89.6086L6.8406 88.4238C6.56865 88.2948 6.256 88.2483 5.95101 88.2914C5.64601 88.3346 5.36566 88.4649 5.15332 88.6624L2.72443 90.9267C2.47204 91.1596 2.33358 91.4704 2.33882 91.7923C2.34405 92.1142 2.49257 92.4214 2.75243 92.6479L8.69707 97.88L0 105.535V106.699H1.32287L10.0199 99.0444L15.9373 104.253C16.1933 104.479 16.5394 104.609 16.9024 104.616C17.2655 104.622 17.617 104.503 17.8827 104.286L20.48 102.169C20.7093 101.983 20.8612 101.734 20.9118 101.463C20.9623 101.192 20.9086 100.914 20.759 100.672L19.3942 98.467L21.8574 93.8093L22.3602 93.2783C23.1057 93.7328 24.0173 93.9255 24.916 93.8184C25.8146 93.7113 26.6353 93.3122 27.2166 92.6996C27.798 92.087 28.098 91.3052 28.0577 90.5078C28.0173 89.7104 27.6396 88.9552 26.9987 88.3905ZM25.6758 91.7471C25.3455 92.0378 24.8976 92.201 24.4305 92.201C23.9635 92.201 23.5155 92.0378 23.1852 91.7471L22.1981 90.8782L20.2641 92.9199L17.2999 98.5254L18.942 101.179L16.942 102.808L4.3965 91.7664L6.26735 90.0225L9.24721 91.4398L16.1685 88.7636L17.8744 87.0725L16.9882 86.2924C16.6659 86.0002 16.4871 85.6082 16.4905 85.201C16.4939 84.7938 16.6792 84.4042 17.0063 84.1163C17.3335 83.8283 17.7762 83.6652 18.2388 83.6622C18.7014 83.6593 19.1468 83.8166 19.4787 84.1003L25.6759 89.5548C26.0061 89.8455 26.1917 90.2398 26.1917 90.6508C26.1917 91.0619 26.0061 91.4562 25.6759 91.7469L25.6758 91.7471Z" fill="#1D1D1D"/>
</svg>
