<svg width="13" height="19" viewBox="0 0 13 19" fill="none" xmlns="http://www.w3.org/2000/svg">
<path d="M6.31844 4.24573C5.85855 4.24573 5.40898 4.3906 5.02659 4.66204C4.6442 4.93347 4.34616 5.31926 4.17017 5.77064C3.99417 6.22201 3.94812 6.71869 4.03784 7.19787C4.12757 7.67704 4.34903 8.1172 4.67422 8.46266C4.99942 8.80813 5.41374 9.0434 5.8648 9.13871C6.31586 9.23402 6.7834 9.18511 7.20829 8.99814C7.63318 8.81117 7.99634 8.49456 8.25184 8.08833C8.50735 7.68211 8.64372 7.20451 8.64372 6.71595C8.64302 6.06104 8.39781 5.43316 7.96189 4.97006C7.52597 4.50697 6.93493 4.24647 6.31844 4.24573ZM6.31844 7.95106C6.0885 7.95106 5.86371 7.87862 5.67252 7.74291C5.48132 7.60719 5.3323 7.4143 5.2443 7.18861C5.15631 6.96292 5.13328 6.71458 5.17814 6.47499C5.223 6.2354 5.33374 6.01533 5.49633 5.8426C5.65893 5.66986 5.86609 5.55223 6.09162 5.50457C6.31715 5.45691 6.55092 5.48137 6.76337 5.57486C6.97581 5.66834 7.15739 5.82665 7.28514 6.02976C7.4129 6.23287 7.48108 6.47167 7.48108 6.71595C7.48073 7.04341 7.35812 7.35734 7.14016 7.58889C6.9222 7.82044 6.62669 7.95068 6.31844 7.95106Z" fill="#D9D9D9"/>
<path d="M10.7867 1.96557C9.68191 0.79223 8.20718 0.0952187 6.6471 0.00905937C5.08702 -0.0770999 3.5522 0.453701 2.33885 1.49902C1.12551 2.54433 0.319653 4.03006 0.0768248 5.66945C-0.166004 7.30884 0.171406 8.98568 1.02393 10.3763L5.41678 17.5405C5.51454 17.6999 5.6482 17.8309 5.80566 17.9215C5.96311 18.0122 6.13937 18.0597 6.31846 18.0597C6.49756 18.0597 6.67382 18.0122 6.83127 17.9215C6.98873 17.8309 7.12239 17.6999 7.22015 17.5405L11.6131 10.3763C12.4042 9.0863 12.7538 7.54661 12.6033 6.01532C12.4528 4.48404 11.8115 3.05424 10.7867 1.96557ZM10.639 9.70216L6.31848 16.7481L1.99793 9.70216C0.675432 7.54538 0.95908 4.65908 2.67237 2.83891C3.15118 2.33024 3.71962 1.92674 4.34522 1.65145C4.97082 1.37616 5.64134 1.23447 6.31848 1.23447C6.99563 1.23447 7.66615 1.37616 8.29175 1.65145C8.91735 1.92674 9.48578 2.33024 9.96459 2.83891C11.6779 4.65908 11.9615 7.54538 10.639 9.70216Z" fill="#D9D9D9"/>
</svg>
