<svg width="128" height="16" viewBox="0 0 128 16" fill="none" xmlns="http://www.w3.org/2000/svg">
<path d="M0.966797 14.2285H2.67578V1.92383H0.966797V1.16211H12.2266C13.1836 1.16211 14.0104 1.2793 14.707 1.51367C15.4036 1.74154 15.9798 2.05729 16.4355 2.46094C16.8913 2.86458 17.2266 3.34635 17.4414 3.90625C17.6628 4.45964 17.7734 5.06185 17.7734 5.71289C17.7734 6.37044 17.6465 6.97266 17.3926 7.51953C17.1452 8.0599 16.7773 8.52539 16.2891 8.91602C15.8073 9.30013 15.2083 9.59961 14.4922 9.81445C13.7826 10.0228 12.9655 10.127 12.041 10.127H9.41406V14.2285H11.1133V15H0.966797V14.2285ZM9.41406 9.42383C9.79167 9.42383 10.1139 9.33919 10.3809 9.16992C10.6478 8.99414 10.8626 8.75 11.0254 8.4375C11.1947 8.125 11.3151 7.75065 11.3867 7.31445C11.4648 6.87826 11.5039 6.39323 11.5039 5.85938C11.5039 5.17578 11.4648 4.58333 11.3867 4.08203C11.3086 3.57422 11.1849 3.15755 11.0156 2.83203C10.8529 2.50651 10.638 2.26562 10.3711 2.10938C10.1107 1.94661 9.79167 1.86523 9.41406 1.86523V9.42383ZM19.3066 12.4414C19.3066 11.9401 19.401 11.5104 19.5898 11.1523C19.7786 10.7878 20.0456 10.4818 20.3906 10.2344C20.7357 9.98047 21.1491 9.77865 21.6309 9.62891C22.1126 9.47266 22.6465 9.35221 23.2324 9.26758C23.8249 9.18294 24.4596 9.1276 25.1367 9.10156C25.8138 9.06901 26.5169 9.05273 27.2461 9.05273V8.50586C27.2461 7.67253 27.1875 7.00521 27.0703 6.50391C26.9596 6.0026 26.7871 5.61849 26.5527 5.35156C26.3249 5.08464 26.0417 4.91211 25.7031 4.83398C25.3646 4.74935 24.9707 4.70703 24.5215 4.70703C24.2806 4.70703 24.0234 4.72656 23.75 4.76562C23.4831 4.80469 23.2454 4.85026 23.0371 4.90234C23.3366 4.9349 23.6133 5.00977 23.8672 5.12695C24.1211 5.24414 24.3392 5.39062 24.5215 5.56641C24.7038 5.74219 24.8438 5.9375 24.9414 6.15234C25.0456 6.36719 25.0977 6.58529 25.0977 6.80664C25.0977 7.08008 25.0293 7.33724 24.8926 7.57812C24.7559 7.81901 24.5671 8.0306 24.3262 8.21289C24.0853 8.38867 23.8053 8.52865 23.4863 8.63281C23.1673 8.73698 22.8255 8.78906 22.4609 8.78906C22.0964 8.78906 21.7546 8.73698 21.4355 8.63281C21.123 8.52865 20.8464 8.38867 20.6055 8.21289C20.3711 8.0306 20.1855 7.81901 20.0488 7.57812C19.9121 7.33724 19.8438 7.08008 19.8438 6.80664C19.8438 6.44206 19.9414 6.11328 20.1367 5.82031C20.3385 5.52734 20.6087 5.27018 20.9473 5.04883C21.2923 4.82096 21.696 4.62565 22.1582 4.46289C22.627 4.30013 23.1283 4.16667 23.6621 4.0625C24.196 3.95833 24.7493 3.88346 25.3223 3.83789C25.9017 3.78581 26.4779 3.75977 27.0508 3.75977C28.0664 3.75977 28.9486 3.83138 29.6973 3.97461C30.4525 4.11133 31.0775 4.35872 31.5723 4.7168C32.0736 5.06836 32.4479 5.55339 32.6953 6.17188C32.9427 6.78385 33.0664 7.56185 33.0664 8.50586V12.5977C33.0664 13.0859 33.1152 13.4635 33.2129 13.7305C33.3171 13.9909 33.5059 14.1211 33.7793 14.1211C33.916 14.1211 34.0267 14.0788 34.1113 13.9941C34.2025 13.903 34.2708 13.7858 34.3164 13.6426C34.3685 13.4993 34.4043 13.3333 34.4238 13.1445C34.4434 12.9557 34.4531 12.7637 34.4531 12.5684V11.6016H35.3223V12.5684C35.3223 13.0892 35.2539 13.5286 35.1172 13.8867C34.987 14.2448 34.7559 14.5345 34.4238 14.7559C34.0983 14.9772 33.6589 15.1335 33.1055 15.2246C32.5586 15.3223 31.8685 15.3711 31.0352 15.3711C30.612 15.3711 30.2148 15.3483 29.8438 15.3027C29.4792 15.2572 29.1439 15.179 28.8379 15.0684C28.5384 14.9577 28.278 14.8112 28.0566 14.6289C27.8353 14.4466 27.6595 14.2188 27.5293 13.9453C27.334 14.2448 27.0736 14.4889 26.748 14.6777C26.4225 14.86 26.071 15.0033 25.6934 15.1074C25.3158 15.2116 24.9349 15.2799 24.5508 15.3125C24.1667 15.3516 23.8151 15.3711 23.4961 15.3711C22.7344 15.3711 22.0866 15.2897 21.5527 15.127C21.0189 14.9707 20.5859 14.7591 20.2539 14.4922C19.9219 14.2253 19.681 13.916 19.5312 13.5645C19.3815 13.2064 19.3066 12.832 19.3066 12.4414ZM24.9414 12.334C24.9414 12.8158 25.0293 13.2064 25.2051 13.5059C25.3809 13.7988 25.6706 13.9453 26.0742 13.9453C26.4128 13.9453 26.6927 13.8249 26.9141 13.584C27.1354 13.3366 27.2461 13.0078 27.2461 12.5977V9.95117C26.7773 9.95117 26.3932 9.99349 26.0938 10.0781C25.7943 10.1628 25.5566 10.2995 25.3809 10.4883C25.2116 10.6706 25.0944 10.9147 25.0293 11.2207C24.9707 11.5267 24.9414 11.8978 24.9414 12.334Z" fill="#3C4B37"/>
<path d="M36.7969 14.2969H38.5059V4.83398H36.7969V4.13086H44.3164V5.38086C44.5247 5.12695 44.7754 4.89909 45.0684 4.69727C45.3678 4.49544 45.6966 4.32617 46.0547 4.18945C46.4128 4.04622 46.7936 3.9388 47.1973 3.86719C47.6074 3.79557 48.0273 3.75977 48.457 3.75977C49.3424 3.75977 50.0716 3.87695 50.6445 4.11133C51.224 4.33919 51.6797 4.66797 52.0117 5.09766C52.3438 5.52083 52.5749 6.03841 52.7051 6.65039C52.8353 7.25586 52.9004 7.93294 52.9004 8.68164V14.2969H54.6094V15H46.1133V14.2969H47.0898V8.68164C47.0898 8.01107 47.0703 7.46419 47.0312 7.04102C46.9922 6.61133 46.9238 6.27604 46.8262 6.03516C46.7285 5.78776 46.5983 5.61849 46.4355 5.52734C46.2728 5.42969 46.0677 5.38086 45.8203 5.38086C45.5729 5.38086 45.3548 5.43294 45.166 5.53711C44.9772 5.64128 44.8177 5.78776 44.6875 5.97656C44.5638 6.16536 44.4694 6.38997 44.4043 6.65039C44.3457 6.91081 44.3164 7.19401 44.3164 7.5V14.2969H45.2832V15H36.7969V14.2969ZM55.8105 9.46289C55.8105 8.61003 55.9831 7.83203 56.3281 7.12891C56.6732 6.42578 57.1484 5.82682 57.7539 5.33203C58.3659 4.83073 59.0885 4.44336 59.9219 4.16992C60.7552 3.89648 61.6634 3.75977 62.6465 3.75977C63.8835 3.75977 64.9447 3.86068 65.8301 4.0625C66.7155 4.25781 67.4414 4.51497 68.0078 4.83398C68.5807 5.15299 69.0007 5.51107 69.2676 5.9082C69.5345 6.30534 69.668 6.69922 69.668 7.08984C69.668 7.3763 69.5964 7.64648 69.4531 7.90039C69.3164 8.1543 69.1243 8.37565 68.877 8.56445C68.6361 8.75326 68.3529 8.90299 68.0273 9.01367C67.7018 9.12435 67.3503 9.17969 66.9727 9.17969C66.5951 9.17969 66.2402 9.1276 65.9082 9.02344C65.5762 8.91276 65.2865 8.76628 65.0391 8.58398C64.7982 8.39518 64.6061 8.17708 64.4629 7.92969C64.3197 7.68229 64.248 7.41536 64.248 7.12891C64.248 6.86198 64.3099 6.61133 64.4336 6.37695C64.5638 6.13607 64.7396 5.92448 64.9609 5.74219C65.1888 5.5599 65.4525 5.41016 65.752 5.29297C66.0579 5.17578 66.3867 5.10742 66.7383 5.08789C66.3672 4.95117 65.9993 4.84701 65.6348 4.77539C65.2767 4.69727 64.9447 4.6582 64.6387 4.6582C64.1374 4.6582 63.7044 4.72656 63.3398 4.86328C62.9753 4.99349 62.6725 5.24089 62.4316 5.60547C62.1973 5.96354 62.0215 6.46159 61.9043 7.09961C61.7871 7.73763 61.7285 8.5612 61.7285 9.57031C61.7285 10.5664 61.7708 11.377 61.8555 12.002C61.9466 12.627 62.0866 13.1185 62.2754 13.4766C62.4707 13.8281 62.7181 14.069 63.0176 14.1992C63.3236 14.3294 63.6914 14.3945 64.1211 14.3945C64.668 14.3945 65.1823 14.3262 65.6641 14.1895C66.1458 14.0527 66.5755 13.8607 66.9531 13.6133C67.3372 13.3594 67.6562 13.0566 67.9102 12.7051C68.1641 12.347 68.3366 11.9466 68.4277 11.5039H69.3457C69.2806 12.1094 69.0951 12.653 68.7891 13.1348C68.4831 13.61 68.0762 14.0137 67.5684 14.3457C67.0671 14.6777 66.4746 14.9316 65.791 15.1074C65.1139 15.2832 64.3717 15.3711 63.5645 15.3711C62.2949 15.3711 61.1751 15.2409 60.2051 14.9805C59.2415 14.7135 58.4342 14.3294 57.7832 13.8281C57.1322 13.3203 56.6406 12.7018 56.3086 11.9727C55.9766 11.237 55.8105 10.4004 55.8105 9.46289ZM71.3379 9.46289C71.3379 8.59049 71.5169 7.80273 71.875 7.09961C72.2331 6.39648 72.7279 5.79753 73.3594 5.30273C73.9974 4.80794 74.7493 4.42708 75.6152 4.16016C76.4876 3.89323 77.4316 3.75977 78.4473 3.75977C79.2285 3.75977 79.9349 3.83789 80.5664 3.99414C81.2044 4.15039 81.7676 4.36523 82.2559 4.63867C82.7507 4.9056 83.1738 5.22461 83.5254 5.5957C83.8835 5.9668 84.1764 6.36719 84.4043 6.79688C84.6387 7.22656 84.8112 7.67904 84.9219 8.1543C85.0326 8.62305 85.0879 9.09505 85.0879 9.57031H77.2559C77.2559 10.5664 77.2982 11.377 77.3828 12.002C77.474 12.627 77.6139 13.1185 77.8027 13.4766C77.998 13.8281 78.2454 14.069 78.5449 14.1992C78.8509 14.3294 79.2188 14.3945 79.6484 14.3945C80.1953 14.3945 80.7096 14.3262 81.1914 14.1895C81.6732 14.0527 82.1029 13.8607 82.4805 13.6133C82.8646 13.3594 83.1836 13.0566 83.4375 12.7051C83.6914 12.347 83.8639 11.9466 83.9551 11.5039H84.873C84.8079 12.1094 84.6224 12.653 84.3164 13.1348C84.0104 13.61 83.6035 14.0137 83.0957 14.3457C82.5944 14.6777 82.002 14.9316 81.3184 15.1074C80.6413 15.2832 79.8991 15.3711 79.0918 15.3711C77.8223 15.3711 76.7025 15.2409 75.7324 14.9805C74.7689 14.7135 73.9616 14.3294 73.3105 13.8281C72.6595 13.3203 72.168 12.7018 71.8359 11.9727C71.5039 11.237 71.3379 10.4004 71.3379 9.46289ZM80 8.58398C79.9805 7.77018 79.9414 7.0931 79.8828 6.55273C79.8242 6.01237 79.7396 5.57943 79.6289 5.25391C79.5182 4.92839 79.3815 4.70052 79.2188 4.57031C79.056 4.43359 78.8607 4.36523 78.6328 4.36523C78.4049 4.36523 78.2064 4.43359 78.0371 4.57031C77.8743 4.70052 77.7376 4.92839 77.627 5.25391C77.5163 5.57943 77.4316 6.01237 77.373 6.55273C77.3145 7.0931 77.2786 7.77018 77.2656 8.58398H80Z" fill="#FFE5D2"/>
<path d="M87.9102 4.83398H86.2012V4.13086H87.9102C88.5677 4.13086 89.1569 4.02018 89.6777 3.79883C90.2051 3.57096 90.651 3.27799 91.0156 2.91992C91.3867 2.55534 91.6699 2.14844 91.8652 1.69922C92.0605 1.25 92.1582 0.800781 92.1582 0.351562H93.7207V4.13086H96.8652V4.83398H93.7207V10.8496C93.7207 11.5462 93.7565 12.1159 93.8281 12.5586C93.9062 12.9948 94.0137 13.3366 94.1504 13.584C94.2936 13.8314 94.4596 14.0007 94.6484 14.0918C94.8438 14.1764 95.0586 14.2188 95.293 14.2188C95.5208 14.2188 95.7422 14.1699 95.957 14.0723C96.1719 13.9681 96.3607 13.8053 96.5234 13.584C96.6862 13.3561 96.8164 13.0632 96.9141 12.7051C97.0117 12.3405 97.0605 11.8945 97.0605 11.3672C97.0605 11.2435 97.0573 11.1165 97.0508 10.9863C97.0443 10.8496 97.0345 10.7096 97.0215 10.5664H97.8418C97.8613 10.8919 97.8711 11.1882 97.8711 11.4551C97.8711 12.2689 97.7572 12.9329 97.5293 13.4473C97.3079 13.9551 96.9889 14.3522 96.5723 14.6387C96.1556 14.9251 95.6478 15.1204 95.0488 15.2246C94.4564 15.3288 93.7891 15.3809 93.0469 15.3809C92.2135 15.3809 91.4779 15.2995 90.8398 15.1367C90.2018 14.974 89.6647 14.7168 89.2285 14.3652C88.7923 14.0072 88.4635 13.5482 88.2422 12.9883C88.0208 12.4284 87.9102 11.748 87.9102 10.9473V4.83398ZM100 4.83398H98.291V4.13086H100C100.658 4.13086 101.247 4.02018 101.768 3.79883C102.295 3.57096 102.741 3.27799 103.105 2.91992C103.477 2.55534 103.76 2.14844 103.955 1.69922C104.15 1.25 104.248 0.800781 104.248 0.351562H105.811V4.13086H108.955V4.83398H105.811V10.8496C105.811 11.5462 105.846 12.1159 105.918 12.5586C105.996 12.9948 106.104 13.3366 106.24 13.584C106.383 13.8314 106.549 14.0007 106.738 14.0918C106.934 14.1764 107.148 14.2188 107.383 14.2188C107.611 14.2188 107.832 14.1699 108.047 14.0723C108.262 13.9681 108.451 13.8053 108.613 13.584C108.776 13.3561 108.906 13.0632 109.004 12.7051C109.102 12.3405 109.15 11.8945 109.15 11.3672C109.15 11.2435 109.147 11.1165 109.141 10.9863C109.134 10.8496 109.124 10.7096 109.111 10.5664H109.932C109.951 10.8919 109.961 11.1882 109.961 11.4551C109.961 12.2689 109.847 12.9329 109.619 13.4473C109.398 13.9551 109.079 14.3522 108.662 14.6387C108.245 14.9251 107.738 15.1204 107.139 15.2246C106.546 15.3288 105.879 15.3809 105.137 15.3809C104.303 15.3809 103.568 15.2995 102.93 15.1367C102.292 14.974 101.755 14.7168 101.318 14.3652C100.882 14.0072 100.553 13.5482 100.332 12.9883C100.111 12.4284 100 11.748 100 10.9473V4.83398ZM111.436 12.4414C111.436 11.9401 111.53 11.5104 111.719 11.1523C111.908 10.7878 112.174 10.4818 112.52 10.2344C112.865 9.98047 113.278 9.77865 113.76 9.62891C114.242 9.47266 114.775 9.35221 115.361 9.26758C115.954 9.18294 116.589 9.1276 117.266 9.10156C117.943 9.06901 118.646 9.05273 119.375 9.05273V8.50586C119.375 7.67253 119.316 7.00521 119.199 6.50391C119.089 6.0026 118.916 5.61849 118.682 5.35156C118.454 5.08464 118.171 4.91211 117.832 4.83398C117.493 4.74935 117.1 4.70703 116.65 4.70703C116.41 4.70703 116.152 4.72656 115.879 4.76562C115.612 4.80469 115.374 4.85026 115.166 4.90234C115.465 4.9349 115.742 5.00977 115.996 5.12695C116.25 5.24414 116.468 5.39062 116.65 5.56641C116.833 5.74219 116.973 5.9375 117.07 6.15234C117.174 6.36719 117.227 6.58529 117.227 6.80664C117.227 7.08008 117.158 7.33724 117.021 7.57812C116.885 7.81901 116.696 8.0306 116.455 8.21289C116.214 8.38867 115.934 8.52865 115.615 8.63281C115.296 8.73698 114.954 8.78906 114.59 8.78906C114.225 8.78906 113.883 8.73698 113.564 8.63281C113.252 8.52865 112.975 8.38867 112.734 8.21289C112.5 8.0306 112.314 7.81901 112.178 7.57812C112.041 7.33724 111.973 7.08008 111.973 6.80664C111.973 6.44206 112.07 6.11328 112.266 5.82031C112.467 5.52734 112.738 5.27018 113.076 5.04883C113.421 4.82096 113.825 4.62565 114.287 4.46289C114.756 4.30013 115.257 4.16667 115.791 4.0625C116.325 3.95833 116.878 3.88346 117.451 3.83789C118.031 3.78581 118.607 3.75977 119.18 3.75977C120.195 3.75977 121.077 3.83138 121.826 3.97461C122.581 4.11133 123.206 4.35872 123.701 4.7168C124.202 5.06836 124.577 5.55339 124.824 6.17188C125.072 6.78385 125.195 7.56185 125.195 8.50586V12.5977C125.195 13.0859 125.244 13.4635 125.342 13.7305C125.446 13.9909 125.635 14.1211 125.908 14.1211C126.045 14.1211 126.156 14.0788 126.24 13.9941C126.331 13.903 126.4 13.7858 126.445 13.6426C126.497 13.4993 126.533 13.3333 126.553 13.1445C126.572 12.9557 126.582 12.7637 126.582 12.5684V11.6016H127.451V12.5684C127.451 13.0892 127.383 13.5286 127.246 13.8867C127.116 14.2448 126.885 14.5345 126.553 14.7559C126.227 14.9772 125.788 15.1335 125.234 15.2246C124.688 15.3223 123.997 15.3711 123.164 15.3711C122.741 15.3711 122.344 15.3483 121.973 15.3027C121.608 15.2572 121.273 15.179 120.967 15.0684C120.667 14.9577 120.407 14.8112 120.186 14.6289C119.964 14.4466 119.788 14.2188 119.658 13.9453C119.463 14.2448 119.202 14.4889 118.877 14.6777C118.551 14.86 118.2 15.0033 117.822 15.1074C117.445 15.2116 117.064 15.2799 116.68 15.3125C116.296 15.3516 115.944 15.3711 115.625 15.3711C114.863 15.3711 114.215 15.2897 113.682 15.127C113.148 14.9707 112.715 14.7591 112.383 14.4922C112.051 14.2253 111.81 13.916 111.66 13.5645C111.51 13.2064 111.436 12.832 111.436 12.4414ZM117.07 12.334C117.07 12.8158 117.158 13.2064 117.334 13.5059C117.51 13.7988 117.799 13.9453 118.203 13.9453C118.542 13.9453 118.822 13.8249 119.043 13.584C119.264 13.3366 119.375 13.0078 119.375 12.5977V9.95117C118.906 9.95117 118.522 9.99349 118.223 10.0781C117.923 10.1628 117.686 10.2995 117.51 10.4883C117.34 10.6706 117.223 10.9147 117.158 11.2207C117.1 11.5267 117.07 11.8978 117.07 12.334Z" fill="#C1271D"/>
</svg>
