<svg width="26" height="20" viewBox="0 0 26 20" fill="none" xmlns="http://www.w3.org/2000/svg">
<g clip-path="url(#clip0_110_62)">
<path d="M25.2204 0H0.779564C0.572811 0 0.374526 0.105357 0.228329 0.292893C0.0821324 0.48043 0 0.734784 0 1C0 1.26522 0.0821324 1.51957 0.228329 1.70711C0.374526 1.89464 0.572811 2 0.779564 2H25.2204C25.4272 2 25.6255 1.89464 25.7717 1.70711C25.9179 1.51957 26 1.26522 26 1C26 0.734784 25.9179 0.48043 25.7717 0.292893C25.6255 0.105357 25.4272 0 25.2204 0Z" fill="#1D1D1D"/>
<path d="M25.2204 9H0.779564C0.572811 9 0.374526 9.10536 0.228329 9.29289C0.0821324 9.48043 0 9.73478 0 10C0 10.2652 0.0821324 10.5196 0.228329 10.7071C0.374526 10.8946 0.572811 11 0.779564 11H25.2204C25.4272 11 25.6255 10.8946 25.7717 10.7071C25.9179 10.5196 26 10.2652 26 10C26 9.73478 25.9179 9.48043 25.7717 9.29289C25.6255 9.10536 25.4272 9 25.2204 9Z" fill="#1D1D1D"/>
<path d="M25.2204 18H0.779564C0.572811 18 0.374526 18.1054 0.228329 18.2929C0.0821324 18.4804 0 18.7348 0 19C0 19.2652 0.0821324 19.5196 0.228329 19.7071C0.374526 19.8946 0.572811 20 0.779564 20H25.2204C25.4272 20 25.6255 19.8946 25.7717 19.7071C25.9179 19.5196 26 19.2652 26 19C26 18.7348 25.9179 18.4804 25.7717 18.2929C25.6255 18.1054 25.4272 18 25.2204 18Z" fill="#1D1D1D"/>
</g>
<defs>
<clipPath id="clip0_110_62">
<rect width="26" height="20" fill="white"/>
</clipPath>
</defs>
</svg>
