<svg width="18" height="19" viewBox="0 0 18 19" fill="none" xmlns="http://www.w3.org/2000/svg">
<path d="M16.1296 18.4567L16.1481 18.4254L18 14.4577L12.5905 10.1752L10.1016 12.1454C9.16299 12.0865 8.27741 11.6663 7.61253 10.9645C6.94765 10.2626 6.54961 9.32786 6.49376 8.33708L8.36033 5.70993L4.30332 0L0.575865 1.93847L0.544394 1.95478L0.514702 1.97444C0.356792 2.07789 0.226595 2.22227 0.136501 2.39385C0.0464077 2.56543 -0.000579834 2.7585 5.72205e-06 2.95467V3.97848C5.72205e-06 5.95114 0.368099 7.90448 1.08327 9.72697C1.79845 11.5495 2.84669 13.2054 4.16816 14.6003C5.48962 15.9952 7.05843 17.1017 8.78501 17.8566C10.5116 18.6115 12.3621 19 14.231 19H15.2009C15.3868 19.0006 15.5697 18.951 15.7322 18.8559C15.8948 18.7608 16.0316 18.6234 16.1296 18.4567ZM14.231 17.5337C7.14993 17.5337 1.38908 11.4529 1.38908 3.97848V3.15005L3.88347 1.85306L6.62407 5.71021L5.09831 7.85766V8.10202C5.09986 9.56466 5.65099 10.9669 6.6308 12.0011C7.6106 13.0354 8.93905 13.6171 10.3247 13.6188H10.5562L12.5906 12.0082L16.2445 14.9008L15.0156 17.5337H14.231Z" fill="#C1271D"/>
</svg>
