<svg width="16" height="17" viewBox="0 0 16 17" fill="none" xmlns="http://www.w3.org/2000/svg">
<path d="M14.3374 16.5114L14.3539 16.4833L16 12.9338L11.1916 9.10267L8.97922 10.8653C8.14488 10.8125 7.3577 10.4366 6.76669 9.80879C6.17568 9.18094 5.82187 8.34468 5.77223 7.45833L7.43141 5.10809L3.82517 0L0.511878 1.73415L0.483904 1.74874L0.457512 1.76633C0.317148 1.85887 0.201417 1.98804 0.121334 2.14153C0.0412512 2.29503 -0.000516891 2.46775 3.8147e-06 2.64324V3.55914C3.8147e-06 5.32387 0.327199 7.07132 0.962908 8.70173C1.59862 10.3321 2.53039 11.8135 3.70503 13.0614C4.87967 14.3093 6.27416 15.2991 7.8089 15.9744C9.34364 16.6498 10.9886 16.9974 12.6497 16.9973H13.5119C13.6771 16.9979 13.8397 16.9535 13.9842 16.8685C14.1287 16.7834 14.2503 16.6605 14.3374 16.5114ZM12.6497 15.6856C6.35549 15.6856 1.23474 10.2457 1.23474 3.55914V2.81803L3.45197 1.65774L5.88807 5.10834L4.53183 7.02945V7.24805C4.53321 8.55652 5.0231 9.81097 5.89404 10.7362C6.76498 11.6614 7.94582 12.1819 9.17751 12.1833H9.38329L11.1916 10.7425L14.4396 13.3302L13.3472 15.6856H12.6497Z" fill="#D9D9D9"/>
</svg>
