<svg width="13" height="19" viewBox="0 0 13 19" fill="none" xmlns="http://www.w3.org/2000/svg">
<path d="M6.49965 4.36755C6.02656 4.36755 5.5641 4.51659 5.17074 4.7958C4.77738 5.07502 4.47079 5.47189 4.28975 5.93621C4.1087 6.40053 4.06133 6.91146 4.15363 7.40438C4.24592 7.8973 4.47374 8.35008 4.80826 8.70546C5.14279 9.06084 5.569 9.30285 6.033 9.4009C6.497 9.49895 6.97795 9.44863 7.41502 9.2563C7.8521 9.06397 8.22568 8.73827 8.48851 8.32039C8.75135 7.90251 8.89163 7.41122 8.89163 6.90864C8.89091 6.23494 8.63867 5.58905 8.19024 5.11267C7.74181 4.63629 7.13382 4.36832 6.49965 4.36755ZM6.49965 8.17918C6.26311 8.17918 6.03187 8.10467 5.83519 7.96506C5.63851 7.82545 5.48522 7.62702 5.3947 7.39486C5.30418 7.16269 5.28049 6.90723 5.32664 6.66077C5.37279 6.41431 5.48669 6.18792 5.65396 6.01023C5.82122 5.83254 6.03432 5.71153 6.26632 5.66251C6.49832 5.61349 6.7388 5.63865 6.95734 5.73481C7.17588 5.83098 7.36266 5.99382 7.49408 6.20276C7.6255 6.4117 7.69564 6.65735 7.69564 6.90864C7.69528 7.24549 7.56915 7.56843 7.34494 7.80662C7.12073 8.04481 6.81674 8.17879 6.49965 8.17918Z" fill="#C1271D"/>
<path d="M11.0961 2.02196C9.95966 0.814957 8.44262 0.0979502 6.83778 0.00931926C5.23295 -0.0793117 3.6541 0.466716 2.40595 1.54202C1.15779 2.61732 0.328823 4.14567 0.0790287 5.83209C-0.170766 7.51851 0.176323 9.24345 1.05331 10.674L5.57217 18.0437C5.67274 18.2077 5.81023 18.3424 5.9722 18.4357C6.13417 18.5289 6.31549 18.5778 6.49972 18.5778C6.68395 18.5778 6.86527 18.5289 7.02724 18.4357C7.18921 18.3424 7.32671 18.2077 7.42727 18.0437L11.9463 10.674C12.76 9.34696 13.1196 7.7631 12.9649 6.18789C12.8101 4.61267 12.1503 3.14185 11.0961 2.02196ZM10.9442 9.98048L6.49974 17.2285L2.05525 9.98048C0.694808 7.76183 0.986593 4.79273 2.74904 2.92035C3.24158 2.39709 3.82632 1.98201 4.46987 1.69882C5.11342 1.41564 5.80317 1.26988 6.49974 1.26988C7.19631 1.26988 7.88607 1.41564 8.52961 1.69882C9.17316 1.98201 9.7579 2.39709 10.2504 2.92035C12.0129 4.79273 12.3046 7.76183 10.9442 9.98048Z" fill="#C1271D"/>
</svg>
