<svg width="11" height="11" viewBox="0 0 11 11" fill="none" xmlns="http://www.w3.org/2000/svg">
<g id="&#240;&#159;&#166;&#134; icon &#34;media play&#34;">
<path id="Vector" d="M10.1444 4.90354L1.05622 0.0875292C0.950136 0.0313164 0.829219 0.0011262 0.705772 3.09023e-05C0.582326 -0.00106439 0.460757 0.0269742 0.353436 0.0812936C0.246115 0.135613 0.156873 0.214274 0.0947904 0.309273C0.0327082 0.404271 2.02603e-06 0.512216 0 0.622123V10.0615C0.000144114 10.1704 0.0323841 10.2774 0.0935002 10.3718C0.154616 10.4661 0.24247 10.5446 0.348286 10.5992C0.454103 10.6539 0.57418 10.6829 0.696526 10.6833C0.818871 10.6838 0.939203 10.6556 1.0455 10.6017L10.1336 5.97838C10.2396 5.92443 10.328 5.84667 10.3897 5.75286C10.4515 5.65906 10.4846 5.55247 10.4857 5.44373C10.4867 5.335 10.4558 5.22791 10.3959 5.13314C10.336 5.03837 10.2492 4.95924 10.1443 4.90362L10.1444 4.90354ZM0.931744 9.70416V0.986901L9.32455 5.43448L0.931744 9.70416Z" fill="#1D1D1D"/>
</g>
</svg>
