<svg width="14" height="12" viewBox="0 0 14 12" fill="none" xmlns="http://www.w3.org/2000/svg">
<path d="M13.6911 1.94894C13.525 1.28396 13.0651 0.762434 12.4729 0.578074C11.3823 0.249283 6.99816 0.249283 6.99816 0.249283C6.99816 0.249283 2.62233 0.241396 1.5204 0.578074C0.931187 0.762926 0.469171 1.28396 0.304821 1.94894C0.098072 3.20939 -0.00464683 4.48512 0.000161287 5.76676C-0.00202422 7.04002 0.100258 8.31378 0.304821 9.56634C0.469171 10.2313 0.931187 10.7528 1.5204 10.9402C2.61097 11.269 6.99816 11.269 6.99816 11.269C6.99816 11.269 11.3714 11.269 12.4729 10.9402C13.0651 10.7528 13.525 10.2318 13.6911 9.56634C13.8917 8.31378 13.9896 7.04002 13.9826 5.76676C13.9896 4.48512 13.8939 3.20939 13.6911 1.94894ZM5.59768 8.12646V3.3967L9.24704 5.76676L5.59768 8.12646Z" fill="#1D1D1D"/>
</svg>
