<svg width="79" height="38" viewBox="0 0 79 38" fill="none" xmlns="http://www.w3.org/2000/svg">
<g filter="url(#filter0_di_1_277)">
<path d="M3.92871 29.2036C3.92871 14.4885 15.8577 2.55957 30.5728 2.55957H59.9931C68.4881 2.55957 75.3747 9.44615 75.3747 17.9412C75.3747 26.4362 68.4881 33.3228 59.9931 33.3228H3.92871V29.2036Z" fill="white"/>
<path d="M20.7175 18.1085H22.4446V18.8644H21.9041L22.9719 21.7692L24.0881 18.8644H23.552V18.1085H25.2791V18.8644H24.8088L22.783 23.9752H23.407V24.7311H21.5701V23.9752H22.1238L22.6072 22.7228L21.0867 18.8644H20.7175V18.1085ZM28.9309 18.1085H30.3987V21.9054H30.9041V22.6613H29.5769V22.2394C29.3718 22.3976 29.1477 22.5206 28.9045 22.6085C28.6643 22.6964 28.4065 22.7404 28.1311 22.7404C27.9026 22.7404 27.6946 22.7081 27.5071 22.6437C27.3225 22.5763 27.1643 22.4738 27.0325 22.3361C26.9036 22.1954 26.804 22.0182 26.7336 21.8043C26.6633 21.5905 26.6282 21.3356 26.6282 21.0397V18.8644H26.0129V18.1085H27.4807V20.943C27.4807 21.2916 27.5613 21.5553 27.7224 21.734C27.8835 21.9127 28.115 22.0021 28.4167 22.0021C28.5955 22.0021 28.783 21.9698 28.9792 21.9054C29.1785 21.8409 29.366 21.7516 29.5417 21.6373V18.8644H28.9309V18.1085ZM32.1213 18.1085H33.5715V18.6403H33.5803C33.6799 18.5553 33.7839 18.4762 33.8923 18.403C34.0037 18.3268 34.1194 18.2609 34.2395 18.2052C34.3596 18.1495 34.4841 18.1056 34.613 18.0734C34.7449 18.0411 34.8811 18.025 35.0217 18.025C35.3499 18.025 35.6326 18.0865 35.8699 18.2096C36.1072 18.3297 36.2903 18.5187 36.4192 18.7765C36.5305 18.6769 36.6477 18.5817 36.7708 18.4908C36.8938 18.3971 37.0212 18.3165 37.1531 18.2491C37.2878 18.1818 37.4285 18.1276 37.575 18.0865C37.7214 18.0455 37.8738 18.025 38.032 18.025C38.2781 18.025 38.4993 18.0587 38.6956 18.1261C38.8918 18.1935 39.0588 18.296 39.1965 18.4337C39.3342 18.5714 39.4382 18.7487 39.5085 18.9655C39.5818 19.1793 39.6184 19.4327 39.6184 19.7257V21.9054H40.2512V22.6613H38.1243V21.9054H38.7659V19.8268C38.7659 19.4781 38.678 19.2145 38.5022 19.0358C38.3264 18.8541 38.073 18.7633 37.7419 18.7633C37.5457 18.7633 37.345 18.8102 37.1399 18.9039C36.9348 18.9977 36.759 19.1163 36.6125 19.2599V21.9054H37.241V22.6613H35.1184V21.9054H35.76V19.8268C35.76 19.4781 35.6707 19.2145 35.4919 19.0358C35.3162 18.8541 35.0627 18.7633 34.7317 18.7633C34.5413 18.7633 34.3494 18.8087 34.156 18.8995C33.9626 18.9904 33.7795 19.1031 33.6067 19.2379V21.9054H34.2483V22.6613H32.1213V21.9054H32.7542V18.8644H32.1213V18.1085ZM41.1301 18.1085H42.5803V18.6403H42.5891C42.6887 18.5553 42.7927 18.4762 42.9011 18.403C43.0125 18.3268 43.1282 18.2609 43.2483 18.2052C43.3684 18.1495 43.4929 18.1056 43.6218 18.0734C43.7537 18.0411 43.8899 18.025 44.0305 18.025C44.3586 18.025 44.6414 18.0865 44.8787 18.2096C45.116 18.3297 45.2991 18.5187 45.428 18.7765C45.5393 18.6769 45.6565 18.5817 45.7795 18.4908C45.9026 18.3971 46.03 18.3165 46.1619 18.2491C46.2966 18.1818 46.4373 18.1276 46.5837 18.0865C46.7302 18.0455 46.8826 18.025 47.0408 18.025C47.2869 18.025 47.5081 18.0587 47.7043 18.1261C47.9006 18.1935 48.0676 18.296 48.2053 18.4337C48.343 18.5714 48.447 18.7487 48.5173 18.9655C48.5906 19.1793 48.6272 19.4327 48.6272 19.7257V21.9054H49.26V22.6613H47.1331V21.9054H47.7747V19.8268C47.7747 19.4781 47.6868 19.2145 47.511 19.0358C47.3352 18.8541 47.0818 18.7633 46.7507 18.7633C46.5544 18.7633 46.3538 18.8102 46.1487 18.9039C45.9436 18.9977 45.7678 19.1163 45.6213 19.2599V21.9054H46.2498V22.6613H44.1272V21.9054H44.7688V19.8268C44.7688 19.4781 44.6794 19.2145 44.5007 19.0358C44.325 18.8541 44.0715 18.7633 43.7405 18.7633C43.55 18.7633 43.3582 18.8087 43.1648 18.8995C42.9714 18.9904 42.7883 19.1031 42.6155 19.2379V21.9054H43.2571V22.6613H41.1301V21.9054H41.7629V18.8644H41.1301V18.1085ZM49.8357 18.1085H51.5627V18.8644H51.0222L52.0901 21.7692L53.2063 18.8644H52.6702V18.1085H54.3972V18.8644H53.927L51.9011 23.9752H52.5251V24.7311H50.6882V23.9752H51.2419L51.7253 22.7228L50.2048 18.8644H49.8357V18.1085ZM55.7947 22.1295C55.7947 22.0533 55.8093 21.9816 55.8386 21.9142C55.8708 21.8439 55.9119 21.7838 55.9617 21.734C56.0144 21.6813 56.0759 21.6403 56.1462 21.611C56.2166 21.5787 56.2913 21.5626 56.3704 21.5626C56.4465 21.5626 56.5183 21.5787 56.5857 21.611C56.656 21.6403 56.7161 21.6813 56.7659 21.734C56.8186 21.7838 56.8596 21.8439 56.8889 21.9142C56.9211 21.9816 56.9373 22.0533 56.9373 22.1295C56.9373 22.2086 56.9211 22.2833 56.8889 22.3536C56.8596 22.424 56.8186 22.4869 56.7659 22.5426C56.7161 22.5953 56.656 22.6364 56.5857 22.6656C56.5183 22.6979 56.4465 22.714 56.3704 22.714C56.2913 22.714 56.2166 22.6979 56.1462 22.6656C56.0759 22.6364 56.0144 22.5953 55.9617 22.5426C55.9119 22.4869 55.8708 22.424 55.8386 22.3536C55.8093 22.2833 55.7947 22.2086 55.7947 22.1295ZM55.7947 15.7311H56.9373L56.7571 20.8595H55.9749L55.7947 15.7311Z" fill="black" fill-opacity="0.8"/>
</g>
<defs>
<filter id="filter0_di_1_277" x="0.598202" y="0.339231" width="78.1071" height="37.4242" filterUnits="userSpaceOnUse" color-interpolation-filters="sRGB">
<feFlood flood-opacity="0" result="BackgroundImageFix"/>
<feColorMatrix in="SourceAlpha" type="matrix" values="0 0 0 0 0 0 0 0 0 0 0 0 0 0 0 0 0 0 127 0" result="hardAlpha"/>
<feOffset dy="1.11017"/>
<feGaussianBlur stdDeviation="1.66525"/>
<feColorMatrix type="matrix" values="0 0 0 0 0 0 0 0 0 0 0 0 0 0 0 0 0 0 0.2 0"/>
<feBlend mode="hard-light" in2="BackgroundImageFix" result="effect1_dropShadow_1_277"/>
<feBlend mode="normal" in="SourceGraphic" in2="effect1_dropShadow_1_277" result="shape"/>
<feColorMatrix in="SourceAlpha" type="matrix" values="0 0 0 0 0 0 0 0 0 0 0 0 0 0 0 0 0 0 127 0" result="hardAlpha"/>
<feOffset dx="-1.11017" dy="-3.33051"/>
<feComposite in2="hardAlpha" operator="arithmetic" k2="-1" k3="1"/>
<feColorMatrix type="matrix" values="0 0 0 0 0 0 0 0 0 0 0 0 0 0 0 0 0 0 0.1 0"/>
<feBlend mode="hard-light" in2="shape" result="effect2_innerShadow_1_277"/>
</filter>
</defs>
</svg>
